<svg xmlns="http://www.w3.org/2000/svg" viewBox="0 0 32 32">
  <defs>
    <linearGradient id="g" x1="0" y1="0" x2="1" y2="1">
      <stop offset="0%" stop-color="#ff6b6b"/>
      <stop offset="50%" stop-color="#ff9500"/>
      <stop offset="100%" stop-color="#ffd60a"/>
    </linearGradient>
  </defs>
  <rect width="32" height="32" rx="7" fill="url(#g)"/>
  <path d="M16 6c-1.5 0-2.8.5-3.8 1.3C11 8.2 10.2 9.5 10 11c-.5 0-1 .2-1.4.6-.7.7-.7 1.8 0 2.5l.4.4V16c0 1.5.5 2.8 1.5 3.8v2.7c0 1 .8 1.8 1.8 1.8h7.4c1 0 1.8-.8 1.8-1.8v-2.7c1-.9 1.5-2.3 1.5-3.8v-1.5l.4-.4c.7-.7.7-1.8 0-2.5-.4-.4-.9-.6-1.4-.6-.2-1.5-1-2.8-2.2-3.7C17.8 6.5 16.5 6 16 6z" fill="white" opacity="0.95"/>
</svg>
